<svg width="120" height="120" viewBox="0 0 120 120" xmlns="http://www.w3.org/2000/svg" role="img" aria-label="EE360 实验室标志">
  <title>EE360 实验室</title>
  <defs>
    <linearGradient id="ee360-bg" x1="8" y1="8" x2="112" y2="112" gradientUnits="userSpaceOnUse">
      <stop offset="0%" stop-color="#B5495B"/>
      <stop offset="55%" stop-color="#C56F49"/>
      <stop offset="100%" stop-color="#D99A4C"/>
    </linearGradient>
    <linearGradient id="ee360-blade" x1="60" y1="20" x2="60" y2="60" gradientUnits="userSpaceOnUse">
      <stop offset="0%" stop-color="#FDF6EC" stop-opacity="0.98"/>
      <stop offset="100%" stop-color="#FDF6EC" stop-opacity="0.72"/>
    </linearGradient>
  </defs>

  <rect x="4" y="4" width="112" height="112" rx="28" fill="url(#ee360-bg)"/>

  <circle cx="60" cy="60" r="46" fill="none" stroke="#FDF6EC" stroke-opacity="0.85" stroke-width="2.2" stroke-dasharray="16 260" stroke-linecap="round" transform="rotate(-90 60 60)"/>

  <g>
    <path d="M60 20 C68 20 75 25.5 77 33 L60 60 L43 33 C45 25.5 52 20 60 20 Z" fill="url(#ee360-blade)" transform="rotate(0 60 60)"/>
    <path d="M60 20 C68 20 75 25.5 77 33 L60 60 L43 33 C45 25.5 52 20 60 20 Z" fill="url(#ee360-blade)" transform="rotate(60 60 60)"/>
    <path d="M60 20 C68 20 75 25.5 77 33 L60 60 L43 33 C45 25.5 52 20 60 20 Z" fill="url(#ee360-blade)" transform="rotate(120 60 60)"/>
    <path d="M60 20 C68 20 75 25.5 77 33 L60 60 L43 33 C45 25.5 52 20 60 20 Z" fill="url(#ee360-blade)" transform="rotate(180 60 60)"/>
    <path d="M60 20 C68 20 75 25.5 77 33 L60 60 L43 33 C45 25.5 52 20 60 20 Z" fill="url(#ee360-blade)" transform="rotate(240 60 60)"/>
    <path d="M60 20 C68 20 75 25.5 77 33 L60 60 L43 33 C45 25.5 52 20 60 20 Z" fill="url(#ee360-blade)" transform="rotate(300 60 60)"/>
  </g>

  <circle cx="60" cy="60" r="11" fill="#FDF6EC"/>
  <circle cx="60" cy="60" r="11" fill="none" stroke="#B5495B" stroke-opacity="0.2" stroke-width="1"/>

  <circle cx="60" cy="14" r="3" fill="#FDF6EC"/>
</svg>
